<!--?xml version="1.0" standalone="no"?-->
              <svg id="sw-js-blob-svg" viewBox="0 0 100 100" xmlns="http://www.w3.org/2000/svg" version="1.1">
                    <defs> 
                        <linearGradient id="sw-gradient" x1="0" x2="1" y1="1" y2="0">
                            <stop id="stop1" stop-color="rgba(255, 219.719, 203.021, 1)" offset="0%"></stop>
                            <stop id="stop2" stop-color="rgba(255, 222.43, 171.488, 1)" offset="100%"></stop>
                        </linearGradient>
                    </defs>
                <path fill="url(#sw-gradient)" d="M21.2,-28.8C28.5,-23.9,36.2,-19.1,38.9,-12.2C41.7,-5.4,39.6,3.4,35.3,9.9C31.1,16.5,24.7,20.9,18.5,24.2C12.2,27.6,6.1,29.9,-1,31.2C-8,32.5,-16.1,32.8,-21.8,29.3C-27.5,25.8,-30.9,18.5,-34,10.6C-37.1,2.8,-39.8,-5.5,-37.7,-12.3C-35.6,-19.2,-28.7,-24.5,-21.6,-29.5C-14.5,-34.5,-7.2,-39.1,-0.1,-38.9C6.9,-38.8,13.9,-33.7,21.2,-28.8Z" width="100%" height="100%" transform="translate(50 50)" stroke-width="0" style="transition: all 0.3s ease 0s;" stroke="url(#sw-gradient)"></path>
              </svg>